<?xml version="1.0" encoding="utf-8"?>
<!-- Generator: Adobe Illustrator 23.0.3, SVG Export Plug-In . SVG Version: 6.00 Build 0)  -->
<svg version="1.1" id="Layer_1" xmlns="http://www.w3.org/2000/svg" xmlns:xlink="http://www.w3.org/1999/xlink" x="0px" y="0px"
	 viewBox="0 0 727.8 140.8" style="enable-background:new 0 0 727.8 140.8;" xml:space="preserve">
<title>codacy-logo</title>
<g>
	<g id="Layer_1-2">
		<g id="Group:_8_Objects_Image">
			<path d="M255.6,94.7c-12.6,0-22.5-10.5-22.5-23.4s10-23.3,22.5-23.3c6.6-0.1,12.8,2.8,16.9,8l-6.7,6c-2.8-3-6.2-5.1-10.3-5.1
				c-7.5,0-13.3,6.3-13.3,14.4s5.8,14.5,13.3,14.5c4.2,0,7.6-2.2,10.5-5.4l6.9,5.7C268.8,91.3,263.2,94.7,255.6,94.7z"/>
			<path d="M325.1,71.3c0-12.8,10.2-23.3,22.7-23.3s22.7,10.5,22.7,23.3s-10.2,23.4-22.7,23.4S325.1,84.2,325.1,71.3z M361.1,71.3
				c0-8.6-5.7-14.6-13.3-14.6s-13.4,6.1-13.4,14.6S340.1,86,347.8,86S361.1,79.9,361.1,71.3z"/>
			<path d="M425.6,94.1V48.6h13.9c14,0,22.8,6.6,22.8,22.2c0,14.9-8.7,23.3-21,23.3H425.6z M453.2,70.7c0-10.1-4.7-13.5-13.7-13.5
				h-4.8v28.4h6.3C449,85.6,453.2,79.9,453.2,70.7z"/>
			<path d="M539.1,83.3h-13.3l-3.1,10.8h-9.6l14.3-45.5h10l14.3,45.5h-9.6L539.1,83.3z M527.9,76h9.1l-1.3-4.9
				c-1.2-4.5-2.7-9.8-3.2-12.7c-0.8,4.3-1.9,8.6-3.2,12.7L527.9,76z"/>
			<path d="M624.3,94.7c-12.6,0-22.5-10.5-22.5-23.4s10-23.3,22.5-23.3c6.6-0.1,12.8,2.9,16.9,8l-6.7,6c-2.8-3-6.2-5.1-10.3-5.1
				c-7.5,0-13.3,6.3-13.3,14.4s5.8,14.5,13.3,14.5c4.2,0,7.6-2.2,10.5-5.4l7,5.7C637.5,91.3,631.9,94.7,624.3,94.7z"/>
			<path d="M705.7,94.1V74.9l-12.5-26.3h10l5.5,13.7c0.6,1.3,1,2.6,1.5,4c0.4-1.4,0.9-2.7,1.5-4l6.1-13.7h10.1L714.6,75v19.1H705.7z
				"/>
			<path d="M22.8,57.6c3.4-12.6,11.7-23.4,23-29.9L35.2,9.4c-16.2,9.3-28,24.7-32.8,42.7L22.8,57.6z"/>
			<path d="M57.7,22.8c4.2-1.1,8.4-1.7,12.7-1.7V0c-6.1,0-12.3,0.8-18.2,2.4L57.7,22.8z"/>
			<path d="M83.3,22.8c12.6,3.4,23.3,11.7,29.9,23l18.3-10.6c-9.3-16.2-24.7-28-42.7-32.8L83.3,22.8z"/>
			<path d="M0,70.4c0,6.1,0.8,12.3,2.4,18.2l20.4-5.5c-1.1-4.2-1.7-8.4-1.7-12.7H0z"/>
			<path d="M9.4,105.6c3.1,5.3,6.8,10.2,11.2,14.5l15-14.9c-3-3-5.7-6.5-7.8-10.2L9.4,105.6z"/>
			<path d="M35.2,131.4c10.7,6.2,22.8,9.4,35.2,9.4v-21.1c-8.6,0-17.1-2.3-24.6-6.6L35.2,131.4z"/>
			<path d="M113.1,95.1c-6.6,11.3-17.3,19.5-29.9,22.9l5.5,20.4c18-4.8,33.4-16.6,42.8-32.8L113.1,95.1z"/>
			<path d="M138.5,89.3c3.3-11.9,3.3-24.5,0.2-36.5l-20.5,5.5c2.2,8.4,2.2,17.2-0.1,25.6L138.5,89.3z"/>
		</g>
	</g>
</g>
</svg>
