<svg xmlns="http://www.w3.org/2000/svg" width="206" height="58" fill="none"><path fill="#1A1A1A" d="M9.483 23.817c1.433-5.182 4.852-9.593 9.483-12.35l-4.41-7.497C7.938 7.719 2.976 14.114.991 21.502l8.49 2.316ZM23.928 9.373a21.75 21.75 0 0 1 5.293-.662V0c-2.537 0-5.073.33-7.499.992l2.206 8.38Zm10.585 0c5.183 1.433 9.704 4.851 12.35 9.482l7.608-4.41C50.612 7.829 44.218 2.867 36.72.882l-2.206 8.49ZM0 29c0 2.536.33 5.072.992 7.498l8.49-2.205A21.75 21.75 0 0 1 8.823 29H0Zm3.86 14.555a30.758 30.758 0 0 0 4.63 5.955l6.175-6.175a20.059 20.059 0 0 1-3.197-4.19l-7.609 4.41Zm10.695 10.586C18.965 56.677 24.038 58 29.11 58v-8.711c-3.528 0-7.057-.882-10.144-2.757l-4.41 7.609Zm32.308-14.886c-2.757 4.63-7.167 8.05-12.35 9.483l2.316 8.38c7.498-1.985 13.893-6.837 17.753-13.563l-7.719-4.3Zm10.916-2.757c1.324-4.962 1.324-10.144.11-15.106l-8.49 2.205a20.29 20.29 0 0 1-.11 10.585l8.49 2.316Zm34.624-10.585c-.992-2.647-3.308-4.19-5.734-4.19-3.86 0-6.395 3.197-6.395 6.946 0 3.75 2.646 7.057 6.395 7.057 2.426 0 4.521-1.323 5.734-3.97h6.395c-1.433 5.734-6.395 9.373-12.019 9.373-3.307 0-6.395-1.102-8.931-3.528-2.536-2.536-3.639-5.514-3.639-9.152 0-6.286 5.403-12.02 12.24-12.02 3.308 0 5.954.883 8.27 2.868 2.205 1.874 3.638 4.08 4.08 6.505h-6.396v.11Zm18.194 15.216c-5.403 0-9.593-3.97-9.593-9.483 0-5.403 4.3-9.483 9.593-9.483 5.403 0 9.593 3.97 9.593 9.373 0 5.403-4.3 9.593-9.593 9.593Zm4.19-9.372c0-2.426-1.764-4.521-4.3-4.521-2.316 0-4.301 2.095-4.301 4.52 0 2.426 1.875 4.522 4.301 4.522 2.426-.11 4.3-2.206 4.3-4.521Zm21.943 8.82v-1.874c-.992 1.654-2.757 2.536-5.403 2.536-5.403 0-8.932-4.19-8.932-9.482 0-5.293 3.639-9.483 8.822-9.483 2.095 0 3.749.661 5.293 2.095V16.87h5.403v23.707h-5.183Zm0-8.93c0-2.426-1.874-4.411-4.521-4.411-2.646 0-4.521 1.874-4.521 4.41 0 2.647 1.875 4.632 4.521 4.632 2.647 0 4.521-1.985 4.521-4.632Zm22.384 8.93v-1.874h-.11c-.772 1.544-2.867 2.536-5.293 2.536-5.293 0-8.932-4.19-8.932-9.482 0-5.403 3.86-9.483 8.932-9.483 2.205 0 4.19.882 5.293 2.536h.11v-1.875h5.403v17.753h-5.403v-.11Zm0-8.93c0-2.537-1.985-4.521-4.521-4.521-2.536 0-4.41 1.984-4.41 4.63 0 2.537 1.984 4.522 4.41 4.522 2.536 0 4.521-1.985 4.521-4.632Zm21.943-1.985c-.772-1.654-2.205-2.537-3.97-2.537-2.425 0-4.079 1.985-4.079 4.521 0 2.536 1.764 4.521 4.3 4.521 1.764 0 3.087-.882 3.859-2.426h5.403c-1.102 4.411-4.851 7.388-9.483 7.388-5.292 0-9.482-4.3-9.482-9.483 0-5.182 4.19-9.483 9.372-9.483 4.742 0 8.491 2.978 9.593 7.499h-5.513Zm9.703 16.87 2.867-6.836-6.616-16.87h5.734l3.529 10.364h.11l3.418-10.365h5.624l-8.932 23.707h-5.734Z"/></svg>